<svg xmlns="http://www.w3.org/2000/svg" version="1.1" xmlns:xlink="http://www.w3.org/1999/xlink" xmlns:svgjs="http://svgjs.dev/svgjs" width="100%" height="100%" viewBox="0 0 1000 600"><rect width="1000" height="600" x="0" y="0" fill="transparent"/><g><circle r="166.66666666666666" cx="267.27546183268225" cy="289.4977120614192" fill="yellow" transform="matrix(1.242435807992725,0,0,1.242435807992725,0,-59.68230292660992)"/><path d="M205.20478843188826 327.04721293968817L199.68134073679747 329.0039500155275Q190.04626830006956 319.3688775787996 175.97757641302212 312.23545634029665Q161.8841157022299 305.1020351017937 144.94224026078547 298.51352798567643L144.94224026078547 298.51352798567643L146.5522138041976 287.6152455379637Q164.90591219909572 280.85335665563275 180.33688939210725 273.79424188836424Q195.76786658511878 266.75989594484054 210.55485436076543 256.40652761951344L210.55485436076543 256.40652761951344L215.90492028964263 258.3880335190976L218.233189721654 270.49998833030565Q206.46799844287315 277.11326427016775 192.64699479327373 282.4633301990449Q178.82599114367434 287.81339612792215 165.45082632148137 291.90025204581434L165.45082632148137 291.90025204581434L165.07929396530935 294.2285214778258Q177.21601760026223 298.3153773957181 189.4270477064495 303.5911368533608Q201.6380778126368 308.84212748725884 211.2731502493647 315.62878519333447L211.2731502493647 315.62878519333447L205.20478843188826 327.04721293968817ZM232.67341396487348 364.4976744418285L232.67341396487348 364.4976744418285Q231.4349727776334 364.4976744418285 229.3791604068148 363.4078461970572Q227.32334803599628 362.3427867760307 226.25828861496979 360.55943146640493L226.25828861496979 360.55943146640493Q240.5251310919756 326.1555352848753 255.78272651877353 290.6618108585743Q271.01555312182666 255.16808643227333 287.7840467970575 218.43592081873226L287.7840467970575 218.43592081873226L302.5958033964489 214.49767784330876L308.29263285775335 219.1542167073315Q292.960730959721 243.5762769197061 280.65062555855457 267.47819183343984Q268.340520157388 291.3801067471735 257.29362476720644 315.25725283716247Q246.22196055328004 339.15916775089624 234.8283016306712 363.60599678701556L234.8283016306712 363.60599678701556Q234.45676927449918 364.4976744418285 232.67341396487348 364.4976744418285ZM323.99606711195764 329.0039500155275L323.99606711195764 329.0039500155275L318.64600118308044 327.04721293968817L316.3177317510691 314.9104893047353Q328.08292302985 308.12383159865954 341.90392667944934 302.7737656697824Q355.7249303290488 297.42369974090525 369.10009515124176 293.5102255892265L369.10009515124176 293.5102255892265L369.4716275074138 291.18195615721515Q357.50828563867447 287.09510023932285 345.19818023750804 281.7450343104457Q332.9128436600863 276.39496838156845 323.27777122335846 269.78169244170635L323.27777122335846 269.78169244170635L329.34613304083484 258.3880335190976L334.86958073592564 256.40652761951344Q344.50465317265355 266.04160005624135 358.6724203546802 273.10071482350986Q372.8401875367068 280.13506076703356 389.60868121193766 286.9217184731092L389.60868121193766 286.9217184731092L387.9987076685255 297.79523209707725Q369.6450092736274 304.38373921319453 354.2140320806159 311.51716045169746Q338.7830548876044 318.6505816902003 323.99606711195764 329.0039500155275Z " fill="black" transform="matrix(1.242435807992725,0,0,1.242435807992725,0,-59.68230292660992)"/><path d="M602.1795625191754 364.4976790415435L602.1795625191754 364.4976790415435Q600.7001106190017 364.4976790415435 600.7001106190017 363.6346654331088L600.7001106190017 363.6346654331088Q602.1795625191754 346.4565850366479 603.3713432165375 330.1826141347376Q604.5631239138996 313.9086432328272 604.5631239138996 300.3059049284526L604.5631239138996 300.3059049284526Q604.5631239138996 279.5935783260213 600.9877818218133 266.73056597173354Q597.4535356158428 253.86755361744585 587.9603859230618 253.86755361744585L587.9603859230618 253.86755361744585Q577.9329897107737 253.86755361744585 565.9329909649205 269.0730314803419Q553.9329922190675 284.3196052293539 545.3850479069529 315.1004239301893L545.3850479069529 315.1004239301893L533.2206656166361 357.7168578324141Q531.453542513651 359.48398093539936 527.7549127632167 360.67576163276146Q524.0562830127826 361.86754233012357 522.0014887069858 361.86754233012357L522.0014887069858 361.86754233012357Q519.905598515073 361.86754233012357 519.905598515073 360.67576163276146L519.905598515073 360.67576163276146Q525.8234061157677 329.6072717291145 527.01518681313 306.2237125291473Q528.206967510492 282.8401533291802 526.4398444075068 265.826456477183Q524.6727213045216 248.8127596251858 521.837105162522 237.42919917107176Q519.0425849066385 226.0456387169577 517.2754618036532 218.9360504189009L517.2754618036532 218.9360504189009L524.3439542155941 214.4976947183799L548.3439517073002 226.0456387169577Q549.2069653157349 248.52508842237424 549.2069653157349 271.00453812779085L549.2069653157349 271.00453812779085L550.9740884187202 271.2922093306024Q562.2343612144864 247.33330772501213 576.1247707216725 232.826459926087Q590.0562761149745 218.36070801327782 602.7549049247984 218.36070801327782L602.7549049247984 218.36070801327782Q615.2069584179269 218.36070801327782 620.83709481581 227.64837827547916Q626.4261353275772 236.97714442379646 626.4261353275772 251.77166342553315L626.4261353275772 251.77166342553315Q626.4261353275772 256.4976903288657 626.3028476692294 261.1004295738504Q626.1384641247656 265.70316881883514 625.850792921954 270.4291957221677L625.850792921954 270.4291957221677L627.6179160249393 270.7168669249793Q638.8781888207055 247.04563652220057 653.3850366196307 232.7031722677392Q667.8507885324399 218.36070801327782 680.5905132283798 218.36070801327782L680.5905132283798 218.36070801327782Q693.0014708353922 218.36070801327782 698.6316072332753 227.64837827547916Q704.2617436311585 236.97714442379646 704.2617436311585 251.77166342553315L704.2617436311585 251.77166342553315Q704.2617436311585 277.8264552230361 701.0151686279996 304.9086441734373Q697.7685936248407 331.94973723772273 693.0014708353922 360.3880904299499L693.0014708353922 360.3880904299499Q691.234347732407 362.4428847357467 686.795992031886 363.4702818886451Q682.357636331365 364.4976790415435 680.3028420255682 364.4976790415435L680.3028420255682 364.4976790415435Q678.535718922583 364.4976790415435 678.535718922583 363.6346654331088L678.535718922583 363.6346654331088Q680.0151708227567 346.4565850366479 681.1658556340029 330.1826141347376Q682.357636331365 313.9086432328272 682.357636331365 300.3059049284526L682.357636331365 300.3059049284526Q682.357636331365 279.5935783260213 678.8233901253947 266.73056597173354Q675.2480480333082 253.86755361744585 665.7959942266431 253.86755361744585L665.7959942266431 253.86755361744585Q658.1110635229633 253.86755361744585 648.2069549690228 262.7442650184878Q638.2617505289664 271.6209764195298 630.0014774196635 289.949741627237Q621.7001084242446 308.2785068349441 618.1658622182742 336.38809293824374L618.1658622182742 336.38809293824374L615.2069584179269 360.3880904299499Q613.4398353149417 362.4428847357467 609.0014796144206 363.4702818886451Q604.5631239138996 364.4976790415435 602.1795625191754 364.4976790415435Z " fill="black" transform="matrix(1.242435807992725,0,0,1.242435807992725,0,-59.68230292660992)"/></g></svg>